<svg xmlns="http://www.w3.org/2000/svg" xmlns:xlink="http://www.w3.org/1999/xlink" viewBox="0 0 97.8 24" overflow="visible"><g><path d="M 0 0 L 97.8 0 L 97.8 24 L 0 24 Z" fill="transparent"></path><path d="M 16.247 20.239 L 9.799 24 L 9.799 0 L 16.247 3.761 Z M 5.32 1.219 L 8.063 2.819 L 7.428 3.907 L 5.633 2.86 L 5.633 21.085 L 7.428 20.038 L 8.063 21.125 L 5.32 22.725 L 4.373 23.278 L 4.373 0.667 L 5.32 1.22 Z M 0 2.5 L 0.947 3.053 L 3.217 4.378 L 2.583 5.466 L 1.259 4.694 L 1.259 19.406 L 2.583 18.634 L 3.218 19.722 L 0.947 21.047 L 0 21.599 Z M 37.296 18.504 C 36.141 19.434 34.675 19.899 32.899 19.899 C 31.772 19.899 30.772 19.709 29.899 19.329 C 29.049 18.966 28.29 18.417 27.679 17.723 C 27.073 17.018 26.608 16.173 26.284 15.187 C 25.974 14.201 25.819 13.109 25.819 11.912 C 25.819 10.714 25.981 9.63 26.305 8.658 C 26.643 7.686 27.122 6.854 27.742 6.164 C 28.377 5.474 29.156 4.933 30.025 4.58 C 30.913 4.213 31.913 4.03 33.026 4.03 C 34.732 4.03 36.155 4.495 37.296 5.425 C 38.438 6.355 39.163 7.679 39.473 9.397 L 36.895 9.397 C 36.655 8.355 36.183 7.566 35.478 7.031 C 34.788 6.495 33.942 6.228 32.942 6.228 C 32.35 6.225 31.765 6.355 31.23 6.608 C 30.696 6.858 30.226 7.226 29.856 7.686 C 29.461 8.165 29.151 8.756 28.926 9.461 C 28.7 10.165 28.588 10.982 28.588 11.912 C 28.588 12.842 28.693 13.666 28.905 14.384 C 29.13 15.102 29.44 15.708 29.835 16.202 C 30.203 16.674 30.673 17.056 31.209 17.322 C 31.743 17.578 32.329 17.708 32.921 17.702 C 33.964 17.702 34.831 17.441 35.521 16.92 C 36.226 16.384 36.697 15.588 36.936 14.532 L 39.516 14.532 C 39.192 16.251 38.452 17.575 37.296 18.505 Z M 46.657 17.617 C 47.009 17.448 47.319 17.208 47.587 16.898 C 47.854 16.574 48.059 16.174 48.2 15.694 C 48.355 15.201 48.432 14.623 48.432 13.961 C 48.432 13.313 48.355 12.743 48.2 12.25 C 48.059 11.757 47.854 11.348 47.587 11.024 C 47.319 10.7 47.009 10.461 46.657 10.306 C 46.304 10.137 45.917 10.052 45.494 10.052 C 45.071 10.052 44.684 10.136 44.331 10.306 C 43.969 10.469 43.65 10.715 43.401 11.024 C 43.134 11.348 42.922 11.757 42.767 12.25 C 42.626 12.743 42.556 13.313 42.556 13.961 C 42.556 14.624 42.627 15.201 42.767 15.694 C 42.9 16.132 43.115 16.54 43.401 16.898 C 43.658 17.2 43.974 17.444 44.331 17.617 C 44.684 17.772 45.071 17.849 45.494 17.849 C 45.916 17.849 46.304 17.772 46.656 17.617 Z M 47.565 8.361 C 48.222 8.597 48.821 8.972 49.32 9.461 C 49.841 9.939 50.257 10.552 50.567 11.299 C 50.877 12.046 51.032 12.933 51.032 13.961 C 51.032 14.99 50.877 15.877 50.567 16.623 C 50.257 17.37 49.841 17.99 49.32 18.483 C 48.816 18.96 48.218 19.327 47.565 19.561 C 46.904 19.786 46.213 19.899 45.494 19.899 C 44.79 19.901 44.09 19.787 43.423 19.561 C 42.765 19.324 42.161 18.958 41.647 18.484 C 41.14 17.99 40.731 17.371 40.421 16.624 C 40.111 15.877 39.956 14.99 39.956 13.961 C 39.956 12.933 40.111 12.046 40.421 11.299 C 40.731 10.552 41.14 9.94 41.647 9.461 C 42.156 8.975 42.761 8.601 43.423 8.362 C 44.084 8.122 44.775 8.002 45.494 8.002 C 46.2 8 46.902 8.122 47.566 8.362 Z M 54.428 10.116 C 54.735 9.541 55.206 9.071 55.781 8.764 C 56.373 8.44 57.071 8.278 57.873 8.278 C 58.563 8.278 59.149 8.383 59.628 8.594 C 60.121 8.806 60.523 9.109 60.833 9.504 C 61.143 9.898 61.368 10.369 61.509 10.919 C 61.664 11.469 61.741 12.081 61.741 12.757 L 61.741 19.9 L 59.226 19.9 L 59.226 13.37 C 59.226 12.99 59.205 12.617 59.163 12.251 C 59.129 11.911 59.028 11.581 58.867 11.279 C 58.727 10.984 58.498 10.74 58.212 10.582 C 57.93 10.412 57.549 10.328 57.07 10.328 C 56.591 10.328 56.182 10.42 55.844 10.603 C 55.512 10.767 55.228 11.014 55.02 11.321 C 54.796 11.662 54.638 12.042 54.555 12.441 C 54.468 12.908 54.425 13.382 54.428 13.857 L 54.428 19.9 L 51.913 19.9 L 51.913 8.531 L 54.428 8.531 Z M 66.388 8.531 L 68.671 8.531 L 68.671 10.348 L 66.388 10.348 L 66.388 16.54 C 66.388 17.117 66.48 17.504 66.663 17.702 C 66.846 17.885 67.205 17.976 67.741 17.976 L 68.65 17.976 L 68.65 19.899 L 66.79 19.899 C 66.184 19.899 65.69 19.857 65.31 19.773 C 64.93 19.674 64.634 19.512 64.422 19.287 C 64.211 19.061 64.063 18.758 63.978 18.378 C 63.908 17.983 63.872 17.497 63.872 16.92 L 63.872 10.348 L 62.182 10.348 L 62.182 8.531 L 63.873 8.531 L 63.873 5.531 L 66.388 5.531 Z M 74.798 19.899 C 73.868 19.899 73.043 19.737 72.324 19.413 C 71.646 19.108 71.04 18.661 70.549 18.103 C 70.073 17.535 69.708 16.882 69.471 16.18 C 69.228 15.429 69.107 14.645 69.111 13.856 C 69.111 12.996 69.245 12.215 69.513 11.51 C 69.762 10.823 70.142 10.191 70.633 9.65 C 71.116 9.127 71.707 8.716 72.366 8.446 C 73.043 8.151 73.796 8.003 74.628 8.003 C 75.516 8.003 76.305 8.172 76.996 8.51 C 77.672 8.837 78.265 9.314 78.729 9.904 C 79.194 10.496 79.539 11.2 79.765 12.017 C 79.99 12.82 80.075 13.701 80.018 14.659 L 71.67 14.659 C 71.684 15.109 71.769 15.532 71.924 15.927 C 72.093 16.307 72.311 16.637 72.579 16.92 C 72.847 17.201 73.157 17.42 73.509 17.575 C 73.875 17.73 74.269 17.807 74.693 17.807 C 76.059 17.807 76.968 17.279 77.419 16.222 L 79.892 16.222 C 79.755 16.697 79.556 17.152 79.3 17.575 C 79.022 18.023 78.673 18.423 78.265 18.758 C 77.822 19.115 77.322 19.394 76.785 19.582 C 76.207 19.793 75.545 19.899 74.798 19.899 Z M 74.628 9.968 C 74.276 9.968 73.924 10.024 73.571 10.137 C 72.866 10.372 72.287 10.883 71.965 11.553 C 71.782 11.905 71.683 12.327 71.669 12.82 L 77.461 12.82 C 77.453 12.413 77.367 12.011 77.207 11.637 C 77.068 11.295 76.86 10.985 76.594 10.728 C 76.338 10.487 76.036 10.301 75.706 10.179 C 75.364 10.038 74.998 9.966 74.628 9.968 Z M 88.215 19.899 L 85.531 16.075 L 82.804 19.899 L 80.035 19.899 L 84.178 14.131 L 80.267 8.531 L 83.227 8.531 L 85.658 12.039 L 88.173 8.531 L 90.921 8.531 L 87.031 13.983 L 91.174 19.899 Z M 92.865 5.531 L 95.381 5.531 L 95.381 8.531 L 97.663 8.531 L 97.663 10.348 L 95.381 10.348 L 95.381 16.54 C 95.381 17.117 95.472 17.505 95.655 17.702 C 95.839 17.885 96.198 17.976 96.733 17.976 L 97.643 17.976 L 97.643 19.9 L 95.783 19.9 C 95.176 19.9 94.683 19.858 94.303 19.773 C 93.923 19.675 93.626 19.513 93.415 19.288 C 93.204 19.062 93.055 18.759 92.971 18.378 C 92.894 17.896 92.858 17.409 92.865 16.921 L 92.865 10.349 L 91.175 10.349 L 91.175 8.531 L 92.865 8.531 Z" fill="rgb(43,43,43)"></path></g></svg>