<svg xmlns="http://www.w3.org/2000/svg" width="27" height="26" fill="none"><g clip-path="url(#a)"><path fill="#5865F2" d="M22.534 4.665a21.176 21.176 0 0 0-5.364-1.686c-.23.418-.5.98-.687 1.427-2-.301-3.982-.301-5.945 0a15.23 15.23 0 0 0-.695-1.427c-1.857.321-3.662.89-5.368 1.69C1.08 9.799.16 14.8.62 19.733c2.252 1.68 4.434 2.702 6.579 3.37a16.354 16.354 0 0 0 1.409-2.32 13.853 13.853 0 0 1-2.219-1.08c.186-.137.367-.281.544-.43 4.278 2 8.926 2 13.153 0 .178.148.36.291.544.43-.707.427-1.45.789-2.223 1.082.407.815.878 1.592 1.41 2.32 2.147-.668 4.33-1.689 6.582-3.372.54-5.717-.922-10.674-3.865-15.068ZM9.191 16.7c-1.285 0-2.338-1.2-2.338-2.66 0-1.46 1.031-2.66 2.338-2.66 1.306 0 2.36 1.199 2.337 2.66.002 1.46-1.03 2.66-2.337 2.66Zm8.638 0c-1.285 0-2.338-1.2-2.338-2.66 0-1.46 1.031-2.66 2.338-2.66 1.306 0 2.36 1.199 2.337 2.66 0 1.46-1.03 2.66-2.337 2.66Z"/></g><defs><clipPath id="a"><path fill="#fff" d="M.51 2.98h26v20.21h-26z"/></clipPath></defs></svg>