<svg xmlns="http://www.w3.org/2000/svg" width="696" height="76" fill="none"><g stroke="#000" clip-path="url(#a)" opacity=".21"><path d="m.572-8.646-311.854 311.854M10.315-8.646-301.54 303.208M20.064-8.646-291.79 303.208M29.807-8.646l-311.855 311.854M39.553-8.646l-311.855 311.854M49.299-8.646l-311.855 311.854M59.045-8.646-252.81 303.208M68.791-8.646l-311.854 311.854M78.533-8.646l-311.854 311.854M88.283-8.646l-311.854 311.854M98.025-8.646l-311.854 311.854M107.772-8.646l-311.855 311.854M117.518-8.646l-311.855 311.854M127.26-8.646l-311.855 311.854M137.01-8.646l-311.855 311.854M146.752-8.646l-311.855 311.854M156.498-8.646l-311.854 311.854m321.6-311.854L-145.61 303.208M175.99-8.646l-311.854 311.854m321.6-311.854-311.854 311.854M195.479-8.646l-311.855 311.854M205.229-8.646l-311.855 311.854M214.971-8.646-96.884 303.208M224.717-8.646-87.138 303.208M234.463-8.646-77.392 303.208M244.209-8.646-67.645 303.208m321.6-311.854L-57.899 303.208M263.697-8.646-48.157 303.208M273.447-8.646-38.407 303.208M283.189-8.646-28.665 303.208M292.936-8.646-18.919 303.208M302.682-8.646-9.173 303.208M312.424-8.646.569 303.208M322.174-8.646 10.319 303.208M331.916-8.646 20.061 303.208M341.662-8.646 29.808 303.208m321.6-311.854L39.554 303.208m321.6-311.854L49.3 303.208M370.9-8.646 59.046 303.208M380.643-8.646 68.788 303.208M390.393-8.646 78.538 303.208M400.135-8.646 88.28 303.208M409.881-8.646 98.026 303.208M419.627-8.646 107.772 303.208M429.369-8.646 117.515 303.208M439.119-8.646 127.265 303.208M448.861-8.646 137.007 303.208m321.6-311.854L146.753 303.208M468.354-8.646 156.499 303.208M478.1-8.646 166.245 303.208M487.846-8.646 175.991 303.208M497.588-8.646 185.733 303.208M507.338-8.646 195.483 303.208M517.08-8.646 205.226 303.208m321.6-311.854L214.972 303.208m321.6-311.854L224.718 303.208M546.314-8.646 234.46 303.208M556.064-8.646 244.21 303.208M565.807-8.646 253.952 303.208M575.553-8.646 263.698 303.208M585.299-8.646 273.444 303.208M595.045-8.646 283.19 303.208M604.791-8.646 292.937 303.208M614.533-8.646 302.679 303.208M624.283-8.646 312.429 303.208M634.025-8.646 322.171 303.208M643.772-8.646 331.917 303.208M653.518-8.646 341.663 303.208M663.26-8.646 351.405 303.208M673.01-8.646 361.155 303.208M682.752-8.646 370.897 303.208M692.498-8.646 380.644 303.208"/></g><g stroke="#000" clip-path="url(#b)" opacity=".1"><path d="M391.5 33v64.732m6-64.732v64.732m6-64.732v64.732m6-64.732v64.732m6-64.732v64.732m6-64.732v64.732m6-64.732v64.732m6-64.732v64.732m6-64.732v64.732m6-64.732v64.732m6-64.732v64.732m6-64.732v64.732m6-64.732v64.732m6-64.732v64.732m6-64.732v64.732m6-64.732v64.732m6-64.732v64.732m6-64.732v64.732m6-64.732v64.732m6-64.732v64.732m6-64.732v64.732m6-64.732v64.732m6-64.732v64.732m6-64.732v64.732m6-64.732v64.732m6-64.732v64.732m6-64.732v64.732m6-64.732v64.732m6-64.732v64.732m6-64.732v64.732m6-64.732v64.732m6-64.732v64.732m6-64.732v64.732m6-64.732v64.732m6-64.732v64.732m6-64.732v64.732m6-64.732v64.732m6-64.732v64.732m6-64.732v64.732m6-64.732v64.732m6-64.732v64.732m6-64.732v64.732m6-64.732v64.732m6-64.732v64.732m6-64.732v64.732m6-64.732v64.732m6-64.732v64.732m6-64.732v64.732m6-64.732v64.732m6-64.732v64.732m6-64.732v64.732"/></g><defs><clipPath id="a"><path fill="#fff" d="M0 0h383v76H0z"/></clipPath><clipPath id="b"><path fill="#fff" d="M391 33h305v33H391z"/></clipPath></defs></svg>