<svg xmlns="http://www.w3.org/2000/svg" width="27" height="26" fill="none"><g clip-path="url(#a)"><path fill="#1B1F23" fill-rule="evenodd" d="M13.51 0c-7.183 0-13 5.817-13 13 0 5.753 3.721 10.611 8.889 12.334.65.114.893-.276.893-.618 0-.309-.016-1.332-.016-2.421-3.266.601-4.111-.796-4.371-1.528-.146-.373-.78-1.527-1.333-1.836-.455-.244-1.105-.845-.016-.861 1.024-.016 1.755.942 1.999 1.332 1.17 1.967 3.039 1.414 3.786 1.073.114-.845.455-1.414.829-1.739-2.893-.325-5.915-1.446-5.915-6.418 0-1.414.504-2.584 1.332-3.494-.13-.325-.585-1.658.13-3.445 0 0 1.089-.341 3.575 1.332a12.063 12.063 0 0 1 3.25-.439c1.105 0 2.21.147 3.25.44 2.486-1.69 3.575-1.333 3.575-1.333.715 1.787.26 3.12.13 3.445.829.91 1.333 2.063 1.333 3.494 0 4.988-3.039 6.093-5.931 6.418.47.406.877 1.186.877 2.405 0 1.739-.016 3.137-.016 3.575 0 .341.243.748.893.618C22.79 23.61 26.51 18.736 26.51 13c0-7.183-5.818-13-13-13Z" clip-rule="evenodd"/></g><defs><clipPath id="a"><path fill="#fff" d="M.51 0h26v26h-26z"/></clipPath></defs></svg>