<svg xmlns="http://www.w3.org/2000/svg" xmlns:xlink="http://www.w3.org/1999/xlink" viewBox="0 0 60.985 24" overflow="visible"><g><path d="M 0 0 L 60.985 0 L 60.985 24 L 0 24 Z" fill="transparent"></path><path d="M 48.439 12.567 C 48.302 9.167 45.354 6.455 41.754 6.455 C 38.052 6.455 35.035 9.305 35.035 12.807 C 35.035 16.309 38.052 19.159 41.755 19.159 C 43.118 19.163 44.452 18.769 45.594 18.026 L 45.594 19.056 L 48.474 19.056 L 48.439 12.566 Z M 41.719 16.447 C 39.629 16.447 37.915 14.833 37.915 12.841 C 37.915 10.85 39.629 9.236 41.72 9.236 C 43.811 9.236 45.525 10.85 45.525 12.841 C 45.525 14.833 43.845 16.447 41.72 16.447 Z M 29.963 15.416 C 29.612 15.738 29.205 15.994 28.763 16.172 C 28.304 16.352 27.816 16.445 27.323 16.446 C 27.049 16.446 26.775 16.412 26.535 16.378 C 26.29 16.313 26.05 16.233 25.815 16.138 C 25.575 16.034 25.369 15.897 25.163 15.794 C 24.958 15.662 24.773 15.5 24.615 15.314 L 31.094 12.91 L 33.871 11.88 C 33.74 10.962 33.387 10.09 32.842 9.339 C 31.677 7.622 29.62 6.489 27.323 6.489 C 23.689 6.489 20.707 9.339 20.707 12.841 C 20.707 13.185 20.741 13.494 20.776 13.803 C 20.913 14.73 21.256 15.588 21.804 16.343 C 22.11 16.764 22.454 17.155 22.832 17.511 C 23.244 17.854 23.655 18.163 24.135 18.403 C 24.615 18.643 25.095 18.85 25.643 18.987 C 26.181 19.123 26.734 19.192 27.289 19.193 C 28.18 19.193 29.071 19.021 29.859 18.678 C 30.643 18.368 31.355 17.901 31.951 17.305 C 32.559 16.738 33.038 16.047 33.357 15.279 C 33.494 14.969 33.597 14.627 33.699 14.283 L 30.717 14.283 C 30.58 14.73 30.306 15.073 29.963 15.416 Z M 27.323 9.202 C 28.386 9.202 29.38 9.648 30.066 10.335 L 23.586 12.738 C 23.586 10.781 25.266 9.202 27.323 9.202 Z M 58.104 19.09 L 60.984 19.09 L 60.984 11.64 C 60.984 8.446 58.858 6.352 55.567 6.352 C 52.344 6.352 50.082 8.515 50.082 11.639 L 50.082 19.055 L 52.962 19.055 L 52.962 11.536 C 52.962 10.094 54.059 9.064 55.567 9.064 C 57.932 9.064 58.104 10.952 58.104 11.536 Z M 13.505 6.42 L 11.277 4.738 L 9.46 7.073 C 6.717 5.803 3.323 6.523 1.404 8.927 C -0.824 11.708 -0.31 15.725 2.569 17.923 C 3.63 18.726 4.908 19.192 6.237 19.262 C 8.328 19.365 10.488 18.541 11.859 16.79 C 13.813 14.386 13.676 11.022 11.722 8.755 L 13.505 6.421 Z M 9.597 15.073 C 8.328 16.653 5.963 16.962 4.317 15.725 C 2.672 14.489 2.364 12.189 3.667 10.609 C 4.287 9.839 5.187 9.346 6.169 9.236 C 6.409 9.202 6.649 9.202 6.854 9.202 C 7.61 9.244 8.337 9.507 8.945 9.957 C 10.557 11.193 10.865 13.494 9.597 15.073 Z M 13.643 17.923 C 13.266 18.403 12.854 18.816 12.409 19.193 C 11.963 19.537 11.483 19.88 10.969 20.155 C 10.489 20.429 9.94 20.635 9.392 20.807 C 8.843 20.979 8.295 21.117 7.712 21.15 C 7.164 21.22 6.581 21.253 5.998 21.22 C 5.431 21.181 4.868 21.089 4.318 20.944 L 4.181 21.391 L 3.633 23.623 C 4.353 23.794 5.073 23.931 5.827 23.966 L 5.93 23.966 C 6.65 24 7.37 23.966 8.09 23.897 C 8.843 23.794 9.563 23.657 10.283 23.417 C 11.003 23.177 11.689 22.901 12.374 22.524 C 13.06 22.18 13.677 21.734 14.26 21.254 C 14.877 20.773 15.425 20.189 15.905 19.605 C 15.982 19.52 16.051 19.428 16.111 19.331 L 13.814 17.683 C 13.746 17.786 13.677 17.854 13.643 17.923 Z M 18.27 14.009 L 18.27 0 L 15.39 0 L 15.39 13.94 C 15.39 16.893 17.413 18.987 20.396 19.193 L 20.396 16.446 C 19.127 16.24 18.27 15.279 18.27 14.009 Z" fill="rgb(43,43,43)"></path></g></svg>