<svg xmlns="http://www.w3.org/2000/svg" xmlns:xlink="http://www.w3.org/1999/xlink" viewBox="0 0 81.682 24" overflow="visible"><g><path d="M 0 0 L 81.682 0 L 81.682 24 L 0 24 Z" fill="transparent"></path><path d="M 14.379 9.6 L 9.586 9.6 L 9.586 14.4 L 14.379 14.4 Z" fill="rgb(43,43,43)"></path><path d="M 19.17 3.27 L 19.17 0 L 4.794 0 L 4.794 3.27 C 4.794 4.115 4.11 4.8 3.266 4.8 L 0 4.8 L 0 19.2 L 3.265 19.2 C 4.109 19.2 4.793 19.885 4.793 20.73 L 4.793 24 L 19.17 24 L 19.17 20.73 C 19.17 19.885 19.854 19.2 20.698 19.2 L 23.963 19.2 L 23.963 4.8 L 20.698 4.8 C 20.293 4.8 19.904 4.638 19.617 4.351 C 19.331 4.064 19.17 3.675 19.171 3.27 Z M 19.17 17.67 C 19.17 18.515 18.487 19.2 17.643 19.2 L 6.321 19.2 C 5.915 19.2 5.526 19.039 5.24 18.752 C 4.953 18.465 4.792 18.076 4.793 17.67 L 4.793 6.33 C 4.793 5.485 5.477 4.8 6.321 4.8 L 17.643 4.8 C 18.487 4.8 19.17 5.485 19.17 6.33 Z M 38.055 4.8 L 35.942 4.8 L 35.942 19.2 L 45.334 19.2 L 45.334 17.163 L 38.055 17.163 Z M 51.427 9.04 L 50.675 9.04 C 48.416 9.04 46.137 10.427 46.137 13.526 L 46.137 15.032 C 46.137 17.84 47.76 19.518 50.477 19.518 L 51.625 19.518 C 53.918 19.518 55.549 18.166 55.885 15.988 L 55.914 15.797 L 53.737 15.797 L 53.701 15.915 C 53.379 16.983 52.537 17.481 51.051 17.481 C 49.123 17.481 48.213 16.623 48.191 14.782 L 55.965 14.782 L 55.965 13.526 C 55.965 10.427 53.685 9.04 51.427 9.04 Z M 48.254 12.983 C 48.469 11.632 49.294 11.077 51.051 11.077 C 52.807 11.077 53.631 11.632 53.847 12.983 Z M 60.182 4.8 L 58.069 4.8 L 58.069 9.04 L 56.664 9.04 L 56.664 11.076 L 58.068 11.076 L 58.068 15.11 C 58.068 18.668 60.229 19.2 61.518 19.2 L 62.851 19.2 L 62.851 17.163 L 62.091 17.163 C 60.734 17.163 60.181 16.476 60.181 14.793 L 60.181 11.077 L 62.851 11.077 L 62.851 9.04 L 60.181 9.04 L 60.181 4.8 Z M 67.322 4.8 L 65.209 4.8 L 65.209 9.04 L 63.805 9.04 L 63.805 11.076 L 65.209 11.076 L 65.209 15.11 C 65.209 18.668 67.371 19.2 68.659 19.2 L 69.993 19.2 L 69.993 17.163 L 69.233 17.163 C 67.876 17.163 67.323 16.476 67.323 14.793 L 67.323 11.077 L 69.993 11.077 L 69.993 9.04 L 67.323 9.04 L 67.323 4.8 Z M 80.877 17.163 C 80.459 17.163 80.272 16.988 80.272 16.596 L 80.272 13.13 C 80.272 9.572 78.111 9.041 76.822 9.041 L 74.884 9.041 C 73.208 9.041 71.414 10.271 71.414 12.101 L 71.414 12.267 L 73.527 12.267 L 73.527 12.1 C 73.527 11.536 74.216 11.078 75.062 11.078 L 76.249 11.078 C 77.765 11.078 78.092 11.625 78.153 12.846 L 75.101 12.846 C 72.741 12.846 71.157 14.106 71.157 15.984 L 71.157 16.202 C 71.157 17.193 71.541 19.499 75.101 19.499 C 76.011 19.499 77.599 19.34 78.454 18.324 C 78.971 19.202 80.063 19.202 80.877 19.202 L 81.043 19.202 L 81.043 17.165 L 80.877 17.165 Z M 78.159 16.081 C 78.159 17.212 76.366 17.46 75.674 17.46 C 73.662 17.46 73.269 16.968 73.269 16.12 C 73.269 15.18 74.101 14.682 75.674 14.682 L 78.159 14.682 L 78.159 16.082 Z" fill="rgb(43,43,43)"></path></g></svg>