<svg xmlns="http://www.w3.org/2000/svg" xmlns:xlink="http://www.w3.org/1999/xlink" viewBox="0 0 126.16 24" overflow="visible"><g><path d="M 0 0 L 126.16 0 L 126.16 24 L 0 24 Z" fill="transparent"></path><path d="M 100.363 0.88 C 98.876 0.88 96.897 1.54 96.897 3.764 C 96.897 5.622 98.687 6.001 99.218 6.111 C 99.68 6.208 100.158 6.269 100.628 6.33 C 101.265 6.416 102.137 6.526 102.137 7.21 C 102.137 7.81 101.402 8.212 100.545 8.212 C 99.966 8.211 99.395 8.069 98.884 7.797 C 98.459 7.565 98.277 7.369 98.057 7.125 L 96.419 8.164 C 96.958 8.787 97.921 9.911 100.347 9.911 C 101.561 9.911 102.805 9.654 103.586 8.751 C 104.041 8.225 104.268 7.541 104.268 6.917 C 104.268 5.939 103.768 5.17 102.782 4.803 C 102.296 4.633 101.06 4.399 100.143 4.289 C 99.779 4.24 99.043 4.143 99.043 3.483 C 99.043 3.067 99.468 2.578 100.325 2.578 C 100.878 2.578 101.424 2.787 101.728 2.958 C 102.069 3.153 102.319 3.386 102.585 3.655 L 104.177 2.518 C 103.426 1.846 102.35 0.88 100.363 0.88 Z M 65.567 1.076 L 65.567 2.53 L 67.422 2.53 L 67.422 1.076 Z M 3.79 1.086 C 3.622 1.086 3.56 1.14 3.646 1.258 C 3.646 1.258 3.958 1.554 4.526 2.205 C 5.312 3.105 5.006 4.305 5.006 4.305 L 0.793 21.17 L 6.923 21.17 L 7.803 17.467 L 13.72 17.467 L 14.64 21.17 L 22.71 21.17 C 26.023 21.17 28.717 20.833 30.045 18.764 C 31.038 20.652 33.177 21.537 36.951 21.211 C 38.265 21.099 39.551 20.484 40.102 19.504 L 40.363 20.317 C 40.581 20.845 41.101 21.185 41.672 21.171 L 47.837 21.171 C 48.004 21.171 48.058 21.121 47.973 21.004 C 47.973 21.004 47.643 20.638 47.097 20.046 C 46.42 19.319 46.457 18.548 46.457 18.548 L 46.457 1.085 L 39.854 1.085 L 39.854 15.051 C 39.772 16.374 38.481 16.709 37.768 16.686 C 36.743 16.654 36.148 16.076 36.148 15.091 L 36.148 1.085 L 29.715 1.085 C 29.715 1.085 27.029 1.088 25.183 1.088 C 21.663 1.088 18.341 1.631 17.217 4.563 L 16.553 1.966 C 16.391 1.45 15.836 1.086 15.283 1.086 L 3.791 1.086 Z M 55.34 1.087 L 52.141 9.717 L 54.437 9.715 L 54.865 8.335 L 58.041 8.335 L 58.468 9.715 L 60.763 9.715 L 57.588 1.087 L 55.341 1.087 Z M 105.201 1.491 L 105.201 3.471 L 104.268 3.471 L 104.268 4.62 L 105.201 4.62 L 105.201 7.7 C 105.201 8.311 105.209 8.763 105.466 9.142 C 105.868 9.729 106.581 9.764 107.226 9.764 C 107.567 9.764 107.81 9.728 108.219 9.666 L 108.219 8.201 L 107.544 8.226 C 107.044 8.226 107.044 7.896 107.059 7.504 L 107.059 4.631 L 108.303 4.631 L 108.303 3.483 L 107.067 3.483 L 107.067 1.49 L 105.201 1.49 Z M 115.621 1.491 L 115.621 3.471 L 114.688 3.471 L 114.688 4.62 L 115.621 4.62 L 115.621 7.7 C 115.621 8.311 115.629 8.763 115.886 9.142 C 116.288 9.729 117.001 9.764 117.646 9.764 C 117.987 9.764 118.23 9.728 118.632 9.666 L 118.632 8.201 L 117.964 8.226 C 117.464 8.226 117.464 7.896 117.471 7.504 L 117.471 4.631 L 118.715 4.631 L 118.715 3.483 L 117.486 3.483 L 117.486 1.49 L 115.621 1.49 Z M 122.234 3.128 C 119.724 3.128 118.965 5.108 118.965 6.648 C 118.965 8.739 120.292 9.948 122.188 9.948 C 123.212 9.948 124.046 9.558 124.592 9.044 C 124.926 8.738 125.146 8.421 125.366 8.091 L 123.948 7.369 C 123.713 7.821 123.356 8.494 122.332 8.494 C 121.324 8.494 120.869 7.699 120.884 6.905 L 125.434 6.905 C 125.411 6.184 125.366 4.938 124.532 4.045 C 123.713 3.165 122.613 3.128 122.234 3.128 Z M 77.604 3.136 C 75.457 3.202 74.372 4.68 74.372 6.514 C 74.372 8.873 76.012 9.899 77.802 9.899 C 80.296 9.899 81.222 8.127 81.222 6.514 C 81.222 5.353 80.652 3.287 78.052 3.14 C 77.903 3.132 77.753 3.131 77.604 3.136 Z M 56.428 3.14 L 57.552 6.782 L 55.366 6.782 C 55.561 6.134 55.891 5.121 56.073 4.472 C 56.196 4.032 56.318 3.58 56.428 3.14 Z M 91.217 3.165 C 90.466 3.165 89.715 3.263 89.124 3.727 C 88.554 4.179 88.494 4.706 88.456 5.146 L 90.337 5.146 C 90.383 4.914 90.497 4.4 91.323 4.4 C 91.998 4.4 92.021 4.888 92.043 5.181 L 92.043 5.524 C 91.255 5.67 90.041 5.891 89.526 6.111 C 89.002 6.331 88.183 6.917 88.183 7.944 C 88.183 8.836 88.805 9.887 90.276 9.887 C 91.216 9.887 91.756 9.483 92.226 9.128 L 92.226 9.716 L 94.068 9.716 C 93.924 9.496 93.886 9.398 93.886 8.713 L 93.886 5 C 93.886 3.35 91.998 3.166 91.216 3.166 Z M 111.64 3.165 C 110.889 3.165 110.13 3.263 109.546 3.727 C 108.97 4.179 108.909 4.706 108.879 5.146 L 110.752 5.146 C 110.805 4.914 110.911 4.4 111.746 4.4 C 112.413 4.4 112.443 4.888 112.466 5.181 L 112.466 5.524 C 111.67 5.67 110.464 5.891 109.948 6.111 C 109.425 6.331 108.606 6.917 108.606 7.944 C 108.606 8.836 109.228 9.887 110.692 9.887 C 111.632 9.887 112.17 9.483 112.648 9.128 L 112.648 9.716 L 114.491 9.716 C 114.347 9.496 114.309 9.398 114.309 8.713 L 114.309 5 C 114.309 3.35 112.421 3.166 111.64 3.166 Z M 85.544 3.177 C 85.097 3.177 84.68 3.287 84.384 3.41 C 84.058 3.569 83.937 3.715 83.754 3.911 L 83.754 3.348 L 81.859 3.348 L 81.859 9.716 L 83.739 9.716 L 83.739 6.269 C 83.739 5.475 83.739 4.68 84.725 4.68 C 85.097 4.68 85.423 4.828 85.575 5.17 C 85.643 5.34 85.658 5.548 85.658 6.123 L 85.658 9.716 L 87.523 9.716 L 87.523 5.353 C 87.523 4.363 87.357 3.788 86.682 3.433 C 86.356 3.25 85.923 3.177 85.544 3.177 Z M 64.92 3.263 C 63.942 3.361 63.49 3.641 63.075 3.995 L 63.075 3.325 L 61.243 3.325 L 61.243 9.715 L 63.123 9.715 L 63.123 6.124 C 63.123 5.317 63.393 5.183 64.296 5.024 L 64.92 4.926 Z M 65.567 3.324 L 65.567 9.716 L 67.422 9.716 L 67.422 3.324 Z M 68.571 3.336 L 68.571 4.778 L 71.649 4.778 L 68.205 8.298 L 68.205 9.716 L 74.03 9.716 L 74.03 8.25 L 70.636 8.25 L 74.03 4.778 L 74.03 3.336 L 68.57 3.336 Z M 122.226 4.473 C 122.552 4.473 122.909 4.594 123.144 4.827 C 123.409 5.107 123.462 5.462 123.493 5.731 L 120.892 5.731 C 120.952 5.462 121.013 5.169 121.271 4.888 C 121.453 4.693 121.771 4.473 122.226 4.473 Z M 77.923 4.625 C 78.181 4.635 78.499 4.711 78.795 4.985 C 79.151 5.328 79.318 5.879 79.318 6.588 C 79.318 7.59 78.818 8.408 77.801 8.408 C 76.755 8.408 76.261 7.516 76.261 6.502 C 76.261 6.062 76.353 5.622 76.581 5.255 C 76.838 4.852 77.157 4.668 77.695 4.631 C 77.763 4.625 77.839 4.622 77.923 4.625 Z M 10.764 5.562 L 12.812 13.809 L 8.723 13.809 Z M 92.046 6.661 C 92.038 7.321 92.008 7.908 91.386 8.298 C 91.195 8.426 90.971 8.498 90.741 8.506 C 90.301 8.506 90.028 8.164 90.028 7.858 C 90.028 7.369 90.521 7.186 90.84 7.064 Z M 112.468 6.661 C 112.453 7.321 112.43 7.908 111.809 8.298 C 111.618 8.426 111.394 8.498 111.164 8.506 C 110.724 8.506 110.451 8.164 110.451 7.858 C 110.451 7.369 110.944 7.186 111.263 7.064 Z M 67.41 12.534 L 67.41 13.989 L 69.268 13.989 L 69.268 12.533 L 67.41 12.533 Z M 93.441 12.534 L 93.441 13.989 L 95.291 13.989 L 95.291 12.533 L 93.441 12.533 Z M 52.425 12.546 L 52.425 17.361 C 52.413 18.534 52.413 20.051 54.074 20.907 C 54.659 21.212 55.429 21.37 56.076 21.37 C 56.443 21.37 58.361 21.296 59.289 19.805 C 59.764 19.023 59.776 18.192 59.788 17.361 L 59.788 12.546 L 57.627 12.546 L 57.627 17.91 C 57.614 18.583 57.614 19.585 56.149 19.585 C 55.612 19.585 55.025 19.451 54.756 18.999 C 54.61 18.729 54.598 18.364 54.598 17.924 L 54.598 12.546 Z M 96.884 12.949 L 96.884 14.93 L 95.951 14.93 L 95.951 16.077 L 96.884 16.077 L 96.884 19.157 C 96.884 19.769 96.892 20.22 97.15 20.599 C 97.551 21.186 98.264 21.224 98.909 21.224 C 99.25 21.224 99.493 21.186 99.895 21.126 L 99.895 19.66 L 99.227 19.683 C 98.727 19.683 98.727 19.355 98.742 18.963 L 98.742 16.09 L 99.986 16.09 L 99.986 14.941 L 98.75 14.941 L 98.75 12.95 L 96.884 12.95 Z M 79.161 14.588 C 76.643 14.588 75.885 16.568 75.885 18.108 C 75.885 20.198 77.22 21.406 79.108 21.406 C 80.139 21.406 80.966 21.016 81.52 20.503 C 81.846 20.198 82.066 19.879 82.285 19.549 L 80.867 18.828 C 80.64 19.28 80.283 19.952 79.26 19.952 C 78.243 19.952 77.788 19.156 77.804 18.362 L 82.361 18.362 C 82.339 17.642 82.285 16.396 81.459 15.504 C 80.639 14.624 79.54 14.588 79.161 14.588 Z M 89.884 14.588 C 88.102 14.588 87.2 15.675 87.2 16.726 C 87.2 17.203 87.39 17.643 87.67 17.924 C 87.95 18.204 88.345 18.364 88.732 18.474 C 89.013 18.557 89.3 18.622 89.589 18.669 C 89.953 18.731 90.392 18.767 90.673 18.914 C 90.787 18.975 90.923 19.06 90.923 19.28 C 90.923 19.757 90.233 19.902 89.786 19.902 C 89.073 19.902 88.443 19.525 87.928 19.024 L 86.745 20.098 C 87.147 20.478 88.065 21.333 89.831 21.333 C 91.333 21.333 92.85 20.6 92.85 19.097 C 92.85 17.581 91.363 17.239 90.081 17.007 C 89.467 16.897 89.065 16.824 89.065 16.457 C 89.065 16.273 89.232 15.98 89.968 15.98 C 90.408 15.98 90.968 16.151 91.568 16.615 L 92.728 15.54 C 92.288 15.235 91.386 14.588 89.884 14.588 Z M 64.454 14.636 C 64.003 14.636 63.587 14.746 63.294 14.868 C 62.964 15.027 62.844 15.173 62.66 15.368 L 62.66 14.808 L 60.765 14.808 L 60.765 21.174 L 62.647 21.174 L 62.647 17.728 C 62.647 16.934 62.647 16.139 63.636 16.139 C 64.002 16.139 64.332 16.286 64.479 16.629 C 64.552 16.8 64.565 17.007 64.565 17.582 L 64.565 21.174 L 66.433 21.174 L 66.433 16.811 C 66.433 15.821 66.261 15.247 65.589 14.893 C 65.26 14.709 64.834 14.636 64.455 14.636 Z M 86.79 14.721 C 85.812 14.819 85.365 15.101 84.947 15.454 L 84.947 14.783 L 83.12 14.783 L 83.12 21.174 L 85 21.174 L 85 17.582 C 85 16.774 85.266 16.641 86.168 16.482 L 86.79 16.384 Z M 67.41 14.783 L 67.41 21.174 L 69.268 21.174 L 69.268 14.783 Z M 93.441 14.783 L 93.441 21.174 L 95.291 21.174 L 95.291 14.783 Z M 69.817 14.795 L 71.88 21.175 L 73.847 21.175 L 75.907 14.795 L 73.981 14.795 L 73.589 16.359 C 73.211 17.862 73.175 18.021 72.919 19.439 C 72.711 18.217 72.576 17.63 71.794 14.795 Z M 100.426 14.795 L 102.329 20.955 C 102.367 21.089 102.412 21.247 102.412 21.405 C 102.412 21.858 101.935 21.86 101.631 21.871 L 100.972 21.871 L 100.972 23.362 L 102.329 23.362 C 102.814 23.35 103.247 23.326 103.687 22.849 C 104.005 22.495 104.134 22.103 104.286 21.687 L 106.53 14.795 L 104.528 14.795 L 103.474 19.365 L 102.428 14.795 Z M 79.146 15.932 C 79.48 15.932 79.828 16.054 80.064 16.286 C 80.329 16.567 80.382 16.922 80.42 17.19 L 77.819 17.19 C 77.879 16.922 77.94 16.628 78.198 16.347 C 78.38 16.152 78.698 15.932 79.146 15.932 Z" fill="rgb(43,43,43)"></path><path d="M 29.872 2.44 C 29.838 2.444 29.806 2.462 29.785 2.49 L 27.268 5.607 C 27.268 5.607 26.003 5.071 24.812 5.061 C 23.702 5.052 22.881 5.251 22.428 5.693 C 22.167 5.95 22.036 6.28 22.036 6.677 C 22.036 7.219 22.343 7.667 22.997 8.082 C 23.584 8.448 24.397 8.76 25.259 9.086 C 26.383 9.514 27.661 9.996 28.709 10.719 C 30.713 12.102 30.869 13.837 30.869 13.837 L 34.741 14.711 C 34.883 14.743 34.948 14.539 34.814 14.481 L 31.031 12.828 C 30.998 12.814 31.011 12.763 31.047 12.764 L 35.247 13.034 C 35.395 13.044 35.427 12.832 35.285 12.795 L 31.248 11.761 C 31.211 11.751 31.215 11.7 31.252 11.696 L 35.442 11.304 C 35.588 11.291 35.588 11.079 35.442 11.066 L 31.252 10.674 C 31.215 10.671 31.212 10.62 31.248 10.611 L 35.285 9.575 C 35.427 9.538 35.395 9.326 35.248 9.336 L 31.048 9.606 C 31.011 9.608 30.998 9.559 31.031 9.543 L 34.815 7.89 C 34.949 7.832 34.885 7.628 34.742 7.66 L 30.638 8.587 C 30.602 8.595 30.582 8.547 30.613 8.527 L 34.008 6.315 C 34.133 6.233 34.034 6.041 33.895 6.097 L 30.038 7.647 C 30.005 7.661 29.976 7.617 30.003 7.591 L 32.915 4.887 C 33.026 4.784 32.895 4.607 32.764 4.686 L 29.265 6.816 C 29.235 6.835 29.201 6.796 29.222 6.766 L 31.573 3.641 C 31.666 3.518 31.503 3.366 31.387 3.467 L 28.344 6.117 C 28.317 6.141 28.277 6.11 28.294 6.077 L 30.005 2.63 C 30.057 2.525 29.964 2.43 29.872 2.44 Z M 15.852 4.666 C 15.766 4.686 15.711 4.805 15.794 4.882 L 16.946 5.951 C 16.971 5.779 17.016 5.536 17.052 5.355 L 15.945 4.682 C 15.917 4.664 15.884 4.658 15.852 4.666 Z M 14.72 6.093 C 14.64 6.127 14.608 6.25 14.702 6.311 L 16.927 7.761 C 16.901 7.484 16.889 7.205 16.89 6.927 L 14.815 6.093 C 14.785 6.08 14.751 6.08 14.721 6.093 Z M 13.973 7.66 C 13.83 7.627 13.764 7.83 13.899 7.89 L 17.404 9.422 C 17.236 9.081 17.11 8.722 17.028 8.351 Z M 13.46 9.336 C 13.315 9.327 13.28 9.536 13.422 9.573 L 17.474 10.613 C 17.508 10.621 17.504 10.671 17.47 10.674 L 13.265 11.066 C 13.12 11.079 13.12 11.29 13.265 11.304 L 17.46 11.696 C 17.497 11.7 17.5 11.751 17.465 11.761 L 13.422 12.799 C 13.28 12.835 13.315 13.044 13.46 13.035 L 17.667 12.765 C 17.703 12.762 17.715 12.814 17.681 12.828 L 13.898 14.481 C 13.764 14.539 13.829 14.743 13.973 14.711 L 18.06 13.789 C 18.1 13.779 18.122 13.832 18.09 13.854 L 14.702 16.06 C 14.577 16.14 14.676 16.333 14.814 16.277 L 18.662 14.731 C 18.699 14.716 18.729 14.763 18.7 14.791 L 15.791 17.493 C 15.681 17.596 15.811 17.77 15.941 17.691 L 19.425 15.571 C 19.461 15.549 19.5 15.594 19.475 15.628 L 17.143 18.728 C 17.051 18.851 17.215 19.002 17.332 18.901 L 20.338 16.281 C 20.373 16.252 20.423 16.291 20.402 16.331 L 18.708 19.741 C 18.638 19.882 18.828 20.004 18.928 19.882 L 21.401 16.814 C 21.401 16.814 22.103 17.16 22.772 17.223 C 23.96 17.336 25.039 17.075 25.63 16.537 C 25.937 16.257 26.09 15.918 26.09 15.535 C 26.09 14.098 24.488 13.544 22.624 12.902 C 20.71 12.238 18.531 11.485 17.498 9.595 Z M 30.904 14.033 C 30.981 14.417 30.974 15.1 30.974 15.1 L 33.894 16.276 C 34.034 16.332 34.132 16.138 34.007 16.056 Z M 30.951 15.663 C 30.937 15.969 30.861 16.529 30.861 16.529 L 32.771 17.691 C 32.901 17.77 33.034 17.596 32.923 17.493 Z M 30.643 17.496 C 30.571 17.734 30.433 18.074 30.433 18.074 L 31.386 18.905 C 31.502 19.006 31.665 18.854 31.572 18.731 Z" fill="rgb(165,165,165)"></path></g></svg>