<svg xmlns="http://www.w3.org/2000/svg" xmlns:xlink="http://www.w3.org/1999/xlink" viewBox="0 0 160 29.257" overflow="visible"><g><path d="M 152.565 24.335 C 147.994 24.335 145.13 21.205 145.13 16.764 C 145.13 12.297 147.994 9.167 152.565 9.167 C 157.136 9.167 160 12.297 160 16.764 C 160 21.205 157.136 24.335 152.565 24.335 Z M 152.565 21.553 C 154.746 21.553 155.902 19.707 155.902 16.764 C 155.902 13.795 154.746 11.949 152.565 11.949 C 150.385 11.949 149.228 13.795 149.228 16.764 C 149.228 19.707 150.385 21.553 152.565 21.553 Z M 143.628 7.535 L 139.477 7.535 L 139.477 3.683 L 143.628 3.683 Z M 143.549 24.014 L 139.529 24.014 L 139.529 9.488 L 143.549 9.488 Z M 131.323 24.335 C 127.803 24.335 125.176 22.81 124.677 19.627 L 128.723 19.627 C 129.011 21.098 130.22 21.553 131.481 21.553 C 133.241 21.553 134.187 20.964 134.187 20.028 C 134.187 19.145 133.609 18.717 131.665 18.262 L 129.143 17.701 C 126.437 17.112 124.966 15.828 124.966 13.661 C 124.966 10.906 127.75 9.167 131.166 9.167 C 134.397 9.167 137.103 10.531 137.734 13.34 L 133.688 13.34 C 133.373 12.43 132.348 11.949 131.192 11.949 C 129.905 11.949 128.801 12.43 128.801 13.34 C 128.801 14.169 129.616 14.49 131.087 14.811 L 133.609 15.373 C 136.604 16.042 138.023 17.353 138.023 19.707 C 138.023 22.676 135.133 24.335 131.323 24.335 Z M 116.592 24.335 C 112.021 24.335 109.157 21.205 109.157 16.764 C 109.157 12.297 112.021 9.167 116.592 9.167 C 121.163 9.167 124.027 12.297 124.027 16.764 C 124.027 21.205 121.163 24.335 116.592 24.335 Z M 116.592 21.553 C 118.773 21.553 119.929 19.707 119.929 16.764 C 119.929 13.795 118.773 11.949 116.592 11.949 C 114.412 11.949 113.256 13.795 113.256 16.764 C 113.256 19.707 114.412 21.553 116.592 21.553 Z M 102.426 9.167 C 105.946 9.167 108.31 12.404 108.31 16.764 C 108.31 21.125 105.946 24.335 102.426 24.335 C 100.219 24.335 98.458 22.971 97.697 21.098 L 97.697 29.257 L 93.703 29.257 L 93.703 9.488 L 97.697 9.488 L 97.697 12.752 C 98.327 10.852 99.93 9.167 102.426 9.167 Z M 100.876 21.553 C 103.056 21.553 104.212 19.707 104.212 16.764 C 104.212 13.795 103.056 11.949 100.876 11.949 C 98.695 11.949 97.539 13.795 97.539 16.764 C 97.539 19.707 98.695 21.553 100.876 21.553 Z M 86.922 9.167 C 90.127 9.167 91.493 11.548 91.493 14.811 L 91.493 24.014 L 87.473 24.014 L 87.473 15.694 C 87.473 13.18 86.711 12.029 85.056 12.029 C 83.401 12.029 82.613 13.18 82.613 15.748 L 82.613 24.014 L 78.593 24.014 L 78.593 15.694 C 78.593 13.18 77.832 12.029 76.176 12.029 C 74.521 12.029 73.733 13.18 73.733 15.748 L 73.733 24.014 L 69.714 24.014 L 69.714 9.488 L 73.707 9.488 L 73.707 12.457 C 74.39 10.665 75.677 9.167 78.094 9.167 C 80.564 9.167 81.93 10.852 82.429 12.698 C 83.059 10.932 84.426 9.167 86.922 9.167 Z M 60.737 24.335 C 56.166 24.335 53.302 21.205 53.302 16.764 C 53.302 12.297 56.166 9.167 60.737 9.167 C 65.308 9.167 68.172 12.297 68.172 16.764 C 68.172 21.205 65.308 24.335 60.737 24.335 Z M 60.737 21.553 C 62.917 21.553 64.073 19.707 64.073 16.764 C 64.073 13.795 62.917 11.949 60.737 11.949 C 58.556 11.949 57.4 13.795 57.4 16.764 C 57.4 19.707 58.556 21.553 60.737 21.553 Z M 43.269 24.335 C 37.752 24.335 33.522 20.322 33.522 13.848 C 33.522 7.402 37.726 3.362 43.295 3.362 C 48.024 3.362 51.65 6.064 52.7 10.612 L 48.366 10.612 C 47.604 8.418 46.08 6.706 43.295 6.706 C 39.985 6.706 37.804 9.515 37.804 13.848 C 37.804 18.209 40.064 20.991 43.295 20.991 C 45.922 20.991 47.683 19.573 48.497 17.032 L 52.832 17.032 C 51.518 22.061 47.919 24.335 43.269 24.335 Z" fill="rgb(0,0,0)"></path><g transform="translate(0 0)"><path d="M 0 0 L 24.7 0 L 24.7 28.987 L 0 28.987 Z" fill="transparent"></path><path d="M 11.769 2.141 C 11.769 0.607 13.315 -0.42 14.699 0.168 L 14.764 0.197 L 14.766 0.198 L 23.376 4.233 C 24.131 4.578 24.605 5.344 24.605 6.176 L 24.605 9.594 C 24.605 10.841 23.559 11.826 22.336 11.73 L 12.585 10.991 L 12.585 17.941 L 22.334 17.202 L 22.449 17.196 C 23.62 17.167 24.605 18.127 24.598 19.331 L 24.598 22.749 C 24.598 23.587 24.112 24.342 23.37 24.692 L 23.369 24.692 L 14.766 28.72 L 14.766 28.72 C 13.363 29.379 11.769 28.341 11.769 26.777 L 11.769 23.52 C 11.704 23.546 11.636 23.562 11.567 23.567 L 6.809 23.915 C 6.618 23.928 6.431 23.861 6.292 23.73 C 6.152 23.598 6.073 23.413 6.073 23.219 L 6.073 19.635 C 6.073 19.496 6.114 19.365 6.184 19.256 L 2.269 19.552 L 2.268 19.552 C 1.048 19.64 0 18.658 0 17.416 L 0 11.516 C 0 10.268 1.048 9.283 2.271 9.38 L 2.271 9.38 L 6.098 9.67 C 6.081 9.609 6.073 9.545 6.073 9.482 L 6.073 5.705 C 6.073 5.443 6.186 5.194 6.383 5.024 C 6.579 4.853 6.84 4.779 7.095 4.821 L 11.626 5.556 C 11.676 5.564 11.724 5.578 11.769 5.596 Z M 22.398 18.027 L 22.396 18.027 L 12.585 18.771 L 12.585 23.091 L 23.782 20.716 L 23.782 19.328 L 23.781 19.258 C 23.748 18.536 23.124 17.97 22.398 18.028 Z M 5.915 10.486 C 5.984 10.595 6.023 10.723 6.023 10.861 L 6.023 18.199 C 6.023 18.284 6.008 18.365 5.98 18.441 L 11.769 18.002 L 11.769 10.929 L 5.915 10.486 Z M 12.585 10.161 L 22.396 10.904 L 22.398 10.905 L 22.467 10.908 C 23.185 10.926 23.789 10.337 23.789 9.594 L 23.789 8.157 L 12.585 5.78 Z" fill="rgb(0,0,0)"></path></g></g></svg>