<svg xmlns:xlink="http://www.w3.org/1999/xlink" xmlns="http://www.w3.org/2000/svg" width="84" height="24" viewBox="0 0 84 24" fill="none" id="svg-661395968_4432">
<g clip-path="url(#svg-661395968_4432_clip0_81_5186)" fill="none">
<path d="M24.7 7.1C20.3 7.1 16.7 10.7 16.7 15.1C16.7 19.5 20.3 23.1 24.7 23.1C29.1 23.1 32.7 19.5 32.7 15.1C32.7 10.7 29.1 7.1 24.7 7.1ZM28.6 15C28.6 17.2 26.9 19 24.8 19C22.7 19 21 17.2 21 15C21 12.8 22.7 11 24.8 11C26.9 11 28.6 12.8 28.6 15ZM52.7 7.4C52.6 7.3 52.5 7.3 52.4 7.3H49.2C49 7.3 48.8 7.5 48.8 7.7V22.2C48.8 22.3 48.8 22.4 48.9 22.5C49 22.6 49.1 22.6 49.2 22.6H52.4C52.6 22.6 52.8 22.4 52.8 22.2V7.7C52.8 7.6 52.8 7.5 52.7 7.4ZM50.8 5.4C52 5.4 53 4.4 53 3.2C53.1 2 52 1 50.8 1C49.6 1 48.6 2 48.6 3.2C48.6 4.5 49.6 5.4 50.8 5.4ZM46.5 1.3H34.8C34.6 1.3 34.4 1.5 34.4 1.7V22.2C34.4 22.3 34.4 22.4 34.5 22.5C34.6 22.6 34.7 22.6 34.8 22.6H38C38.2 22.6 38.4 22.4 38.4 22.2V13.9H45.6C45.7 13.9 45.8 13.9 45.9 13.8C46 13.7 46 13.6 46 13.5V10.5C46 10.3 45.8 10.1 45.6 10.1H38.4V5.1H46.5C46.6 5.1 46.7 5.1 46.8 5C46.9 4.9 46.9 4.8 46.9 4.7V1.7C46.9 1.5 46.7 1.3 46.5 1.3ZM9.2 10.2C6 8.8 5 8.2 5 7C5 5.4 6.5 4.9 7.9 4.9C9.4 4.9 11 5.7 11 7.9C11 8.1 11.1 8.2 11.3 8.2H14.8C14.9 8.1 15 8 15 7.9C15 3.9 12.1 1 7.9 1C3.7 1 1 3.4 1 7C1 11.3 4.2 12.6 7.3 13.8L7.5 13.9C10.4 15 11.4 15.5 11.4 16.9C11.4 18.8 9.4 19.1 8.3 19.1C6.2 19.1 4.6 17.6 4.6 15.6V15.4C4.6 15.2 4.5 15.1 4.3 15.1H0.8C0.7 15.1 0.5 15.2 0.5 15.4V15.7C0.5 20.1 3.7 23.1 8.2 23.1C12.5 23.1 15.4 20.6 15.4 17C15.5 13.3 13.6 12 9.2 10.2ZM83.5 22C83.5 22.6 83.1 23 82.5 23C81.9 23 81.5 22.6 81.5 22C81.5 21.4 81.9 21 82.5 21C83.1 21 83.5 21.4 83.5 22ZM81.7 22C81.7 22.5 82 22.8 82.5 22.8C83 22.8 83.3 22.5 83.3 22C83.3 21.5 83 21.2 82.5 21.2C82 21.2 81.7 21.5 81.7 22ZM82.9 21.8C82.9 21.9 82.8 22 82.7 22.1L82.9 22.5H82.6L82.4 22.1H82.3V22.5H82.1V21.5H82.5C82.7 21.5 82.9 21.6 82.9 21.8ZM82.4 21.7V22H82.5C82.6 22 82.7 21.9 82.7 21.9C82.7 21.8 82.6 21.8 82.5 21.8H82.4V21.7ZM78.3 1.9C79.7 1.9 80.8 3 80.8 4.4C80.8 5.8 79.7 6.9 78.3 6.9C76.9 6.9 75.8 5.8 75.8 4.4C75.8 3 76.9 1.9 78.3 1.9ZM78.3 1C76.4 1 74.8 2.6 74.8 4.5C74.8 6.4 76.4 8 78.3 8C80.2 8 81.8 6.4 81.8 4.5C81.8 2.6 80.2 1 78.3 1Z" fill="#2B2B2B"></path>
<path d="M79.9658 15.0673C81.664 14.1438 82.2919 12.0185 81.3685 10.3204C80.445 8.62227 78.3198 7.99428 76.6216 8.91775C74.9235 9.84122 74.2955 11.9665 75.219 13.6646C76.1424 15.3627 78.2677 15.9907 79.9658 15.0673Z" fill="#2B2B2B"></path>
<path d="M79.9619 22.5673C81.66 21.6438 82.288 19.5185 81.3646 17.8204C80.4411 16.1223 78.3159 15.4943 76.6177 16.4177C74.9196 17.3412 74.2916 19.4665 75.2151 21.1646C76.1385 22.8627 78.2638 23.4907 79.9619 22.5673Z" fill="#2B2B2B"></path>
<path d="M70.8008 9.5C71.5008 9.5 72.1008 9.8 72.6008 10.2C73.1008 10.7 73.3008 11.3 73.3008 12C73.3008 13.4 72.2008 14.5 70.8008 14.5C70.1008 14.5 69.5008 14.2 69.0008 13.8C68.5008 13.3 68.3008 12.7 68.3008 12C68.2008 10.6 69.4008 9.5 70.8008 9.5ZM70.8008 8.5C68.9008 8.5 67.3008 10.1 67.3008 12C67.3008 13.9 68.9008 15.5 70.8008 15.5C72.7008 15.5 74.3008 13.9 74.3008 12C74.3008 10.1 72.7008 8.5 70.8008 8.5Z" fill="#2B2B2B"></path>
<path d="M66.4759 13.3888C67.2588 11.6214 66.4607 9.55403 64.6933 8.77117C62.9259 7.98831 60.8586 8.78642 60.0757 10.5538C59.2928 12.3212 60.0909 14.3885 61.8583 15.1714C63.6257 15.9543 65.6931 15.1562 66.4759 13.3888Z" fill="#2B2B2B"></path>
<path d="M73.9915 5.89269C74.7744 4.12531 73.9763 2.05794 72.2089 1.27508C70.4416 0.492222 68.3742 1.29033 67.5913 3.0577C66.8085 4.82507 67.6066 6.89245 69.3739 7.67531C71.1413 8.45817 73.2087 7.66006 73.9915 5.89269Z" fill="#2B2B2B"></path>
<path d="M66.4857 5.88487C67.2685 4.1175 66.4704 2.05013 64.7031 1.26727C62.9357 0.484406 60.8683 1.28252 60.0855 3.04989C59.3026 4.81726 60.1007 6.88463 61.8681 7.66749C63.6355 8.45035 65.7028 7.65225 66.4857 5.88487Z" fill="#2B2B2B"></path>
<path d="M73.974 20.9044C74.7568 19.137 73.9587 17.0697 72.1913 16.2868C70.424 15.5039 68.3566 16.302 67.5737 18.0694C66.7909 19.8368 67.589 21.9042 69.3564 22.687C71.1237 23.4699 73.1911 22.6718 73.974 20.9044Z" fill="#2B2B2B"></path>
<path d="M63.3008 17C64.0008 17 64.6008 17.3 65.1008 17.7C65.6008 18.2 65.8008 18.8 65.8008 19.5C65.8008 20.9 64.7008 22 63.3008 22C61.9008 22 60.8008 20.9 60.8008 19.5C60.7008 18.1 61.9008 17 63.3008 17ZM63.3008 16C61.4008 16 59.8008 17.6 59.8008 19.5C59.8008 21.4 61.4008 23 63.3008 23C65.2008 23 66.8008 21.4 66.8008 19.5C66.8008 17.6 65.2008 16 63.3008 16Z" fill="#2B2B2B"></path>
</g>
<defs>
<clipPath id="svg-661395968_4432_clip0_81_5186">
<rect width="84" height="24" fill="white"></rect>
</clipPath>
</defs>
</svg>