<svg xmlns="http://www.w3.org/2000/svg" xmlns:xlink="http://www.w3.org/1999/xlink" viewBox="0 0 37 44" overflow="visible"><g><g transform="translate(0 0)"><path d="M 0 0 L 37 0 L 37 44 L 0 44 Z" fill="transparent"></path><path d="M 17.63 3.25 C 17.63 0.921 19.945 -0.637 22.018 0.255 L 22.117 0.299 L 22.119 0.3 L 35.016 6.425 C 36.148 6.95 36.858 8.112 36.858 9.374 L 36.858 14.563 C 36.858 16.456 35.29 17.951 33.459 17.805 L 18.852 16.684 L 18.852 27.232 L 33.457 26.111 L 33.628 26.102 C 35.382 26.058 36.858 27.515 36.847 29.343 L 36.847 34.531 C 36.847 35.803 36.119 36.948 35.008 37.48 L 35.006 37.48 L 22.119 43.594 L 22.12 43.594 C 20.018 44.594 17.63 43.02 17.63 40.645 L 17.63 35.701 C 17.533 35.74 17.431 35.765 17.327 35.773 L 10.199 36.3 C 9.914 36.321 9.634 36.22 9.425 36.019 C 9.216 35.819 9.097 35.539 9.097 35.245 L 9.097 29.804 C 9.097 29.593 9.158 29.395 9.263 29.228 L 3.399 29.678 L 3.397 29.678 C 1.57 29.812 0 28.322 0 26.436 L 0 17.48 C 0 15.587 1.569 14.091 3.402 14.238 L 3.401 14.238 L 9.135 14.678 C 9.11 14.585 9.097 14.489 9.097 14.392 L 9.097 8.66 C 9.097 8.262 9.266 7.884 9.561 7.625 C 9.856 7.367 10.246 7.254 10.629 7.317 L 17.416 8.434 C 17.49 8.446 17.562 8.467 17.63 8.495 Z M 33.552 27.364 L 33.549 27.364 L 18.852 28.492 L 18.852 35.051 L 35.626 31.445 L 35.626 29.338 L 35.624 29.231 C 35.574 28.135 34.639 27.277 33.552 27.364 Z M 8.861 15.917 C 8.964 16.082 9.023 16.277 9.023 16.486 L 9.023 27.624 C 9.023 27.753 9 27.877 8.958 27.991 L 17.63 27.326 L 17.63 16.59 L 8.861 15.917 Z M 18.852 15.424 L 33.549 16.552 L 33.552 16.552 L 33.656 16.558 C 34.731 16.585 35.636 15.69 35.636 14.563 L 35.636 12.382 L 18.852 8.774 Z" fill="rgb(255, 255, 255)"></path></g></g></svg>