<svg xmlns="http://www.w3.org/2000/svg" xmlns:xlink="http://www.w3.org/1999/xlink" viewBox="0 0 110 44" overflow="visible"><g><path d="M 53.476 28.234 C 52.871 28.811 52.169 29.292 51.371 29.628 C 50.596 29.965 49.724 30.134 48.804 30.134 C 48.34 30.136 47.878 30.087 47.424 29.989 C 46.986 29.89 46.557 29.753 46.141 29.581 C 45.739 29.393 45.35 29.176 44.98 28.931 C 44.617 28.667 44.277 28.379 43.987 28.066 L 55.437 23.667 L 60.303 21.792 C 60.037 20.109 59.432 18.523 58.512 17.152 C 56.43 14.027 52.847 11.984 48.804 11.984 C 42.389 11.984 37.16 17.177 37.16 23.547 C 37.16 24.148 37.209 24.725 37.306 25.301 C 37.572 26.984 38.177 28.571 39.097 29.941 C 39.629 30.71 40.234 31.431 40.937 32.057 C 41.639 32.682 42.389 33.234 43.236 33.691 C 44.075 34.156 44.97 34.512 45.899 34.749 C 46.843 34.989 47.812 35.109 48.828 35.109 C 50.426 35.109 51.976 34.797 53.355 34.196 C 54.76 33.619 55.994 32.754 57.059 31.72 C 58.125 30.662 58.972 29.436 59.553 28.042 C 59.795 27.465 59.988 26.84 60.134 26.215 L 54.856 26.215 C 54.545 26.979 54.075 27.667 53.476 28.234 Z M 48.828 16.936 C 50.717 16.936 52.435 17.753 53.646 19.004 L 42.195 23.403 C 42.268 19.845 45.222 16.936 48.828 16.936 Z M 32.406 25.473 L 32.381 0 L 27.317 0 L 27.341 25.352 C 27.341 30.704 30.928 34.505 36.162 34.893 L 36.162 29.904 C 33.957 29.541 32.406 27.798 32.406 25.473 Z" fill="rgb(43, 43, 43)"></path><path d="M 32.25 25.473 L 32.225 0 L 27.161 0 L 27.185 25.352 C 27.185 30.704 30.772 34.505 36.006 34.893 L 36.006 29.904 C 33.801 29.541 32.25 27.798 32.25 25.474 Z M 85.871 23.089 C 85.625 16.935 80.439 11.984 74.073 11.984 C 67.56 11.984 62.251 17.176 62.251 23.546 C 62.251 29.916 67.56 35.109 74.073 35.109 C 76.58 35.109 78.915 34.339 80.832 33.017 L 80.832 34.892 L 85.92 34.892 L 85.871 23.137 L 85.871 23.09 Z M 74.073 30.157 C 70.362 30.157 67.339 27.2 67.339 23.57 C 67.339 19.94 70.362 16.983 74.073 16.983 C 77.784 16.983 80.807 19.94 80.807 23.57 C 80.807 27.2 77.784 30.157 74.073 30.157 Z M 99.138 11.852 C 93.139 11.852 88.276 16.702 88.276 22.685 L 88.276 34.953 L 93.439 34.953 L 93.439 22.677 C 93.439 19.566 95.968 17.044 99.088 17.044 L 99.188 17.044 C 102.308 17.044 104.837 19.566 104.837 22.677 L 104.837 34.952 L 110 34.952 L 110 22.685 C 110 16.702 105.137 11.852 99.138 11.852 Z M 28.47 35.316 C 27.783 36.289 27.012 37.2 26.167 38.038 C 25.745 38.458 25.305 38.858 24.847 39.239 C 24.39 39.62 23.916 39.981 23.427 40.32 C 22.939 40.662 22.436 40.982 21.92 41.279 C 21.404 41.575 20.875 41.848 20.335 42.098 C 19.796 42.349 19.245 42.576 18.684 42.777 C 18.125 42.982 17.556 43.16 16.979 43.31 C 16.407 43.463 15.826 43.592 15.237 43.694 C 14.65 43.797 14.059 43.874 13.465 43.923 C 12.279 44.026 11.086 44.026 9.899 43.923 C 9.306 43.874 8.714 43.798 8.128 43.694 C 7.541 43.592 6.96 43.464 6.385 43.31 L 7.696 38.431 C 8.125 38.548 8.564 38.644 9.007 38.719 C 9.445 38.797 9.89 38.855 10.34 38.892 C 11.233 38.969 12.131 38.969 13.024 38.892 C 13.474 38.855 13.919 38.797 14.357 38.719 C 14.799 38.644 15.236 38.548 15.668 38.431 C 16.102 38.318 16.531 38.184 16.953 38.031 C 17.374 37.88 17.789 37.71 18.194 37.52 C 18.601 37.333 18.999 37.127 19.388 36.904 C 19.777 36.681 20.156 36.441 20.525 36.184 C 21.261 35.674 21.952 35.1 22.588 34.468 C 23.226 33.838 23.807 33.152 24.324 32.42 Z M 23.933 11.852 L 20.648 16.046 C 22.406 18.136 23.368 20.782 23.365 23.515 C 23.365 29.95 18.134 35.166 11.682 35.166 C 5.231 35.166 0 29.95 0 23.515 C 0 17.08 5.231 11.864 11.682 11.864 C 13.442 11.864 15.11 12.253 16.607 12.948 L 19.917 8.723 Z M 11.682 16.868 C 8.001 16.868 5.017 19.844 5.017 23.515 C 5.017 27.186 8.001 30.163 11.682 30.163 C 15.363 30.163 18.347 27.186 18.347 23.515 C 18.347 19.844 15.363 16.868 11.682 16.868 Z" fill="rgb(43, 43, 43)"></path></g></svg>